 http://img690.imageshack.us/img690/8535/1hnwsqan.jpg

Country.......: USA
Genre.........: Drama
Date release..: 05.05.2011 [World]
Director......: Steven Kessler
Writers.......: Steven Kessler
Duration......: 96 min.
Trailer.......:

Pilot :
Best friends Hunter and Santo, who lived in New York among the night events, women and drugs. They start with the vision 1800 and the two embark on a spiritual journey to escape from everyday responsibilities and the world.

Cats :
Paz de la Huerta...........
Isaach De Bankole..........
Kirk Acevedo...............
Jane Bradbury..............
Mike Doyle.................

Data Technical :
!!! SAMPLE !!!
Audio.....: English
Subtitles.: None
Format                           : AVI
Format/Info                      : Audio Video Interleave
File size                        : 701 MiB
Duration                         : 1h 36mn
Overall bit rate                 : 1 020 Kbps
Writing application              : VirtualDubMod 1.5.10.2 (build 2540/release)
Writing library                  : VirtualDubMod build 2540/release
Video
ID                               : 0
Format                           : MPEG-4 Visual
Format profile                   : Advanced Simple@L5
Format settings, BVOP            : Yes
Format settings, QPel            : No
Format settings, GMC             : No warppoints
Format settings, Matrix          : Default (H.263)
Codec ID                         : XVID
Codec ID/Hint                    : XviD
Duration                         : 1h 36mn
Bit rate                         : 844 Kbps
Width                            : 640 pixels
Height                           : 272 pixels
Display aspect ratio             : 2.35:1
Frame rate                       : 23.976 fps
Color space                      : YUV
Chroma subsampling               : 4:2:0
Bit depth                        : 8 bits
Scan type                        : Progressive
Bits/(Pixel*Frame)               : 0.202
Stream size                      : 581 MiB (83%)
Writing library                  : XviD 63
Audio
ID                               : 1
Format                           : MPEG Audio
Format version                   : Version 1
Format profile                   : Layer 3
Mode                             : Joint stereo
Mode extension                   : MS Stereo
Codec ID                         : 55
Codec ID/Hint                    : MP3
Duration                         : 1h 36mn
Bit rate mode                    : Variable
Bit rate                         : 160 Kbps
Channel(s)                       : 2 channels
Sampling rate                    : 48.0 KHz
Stream size                      : 112 MiB (16%)
Alignment                        : Aligned on interleaves
Interleave, duration             : 24 ms (0.58 video frame)
Interleave, preload duration     : 99 ms

Screen : 
http://img853.imageshack.us/img853/9826/gettinghigh2011s1.jpg 
http://img38.imageshack.us/img38/8720/gettinghigh2011s2.jpg 
http://img38.imageshack.us/img38/8720/gettinghigh2011s2.jpg 
http://img713.imageshack.us/img713/4191/gettinghigh2011s4.jpg 
http://img860.imageshack.us/img860/1149/gettinghigh2011s5.jpg